# xmcd
#
# Track frame offsets:
#  150
#  12449
#  28241
#  36366
#  49352
#  65266
#  76872
#  90872
#  99744
#  109411
#  120675
#
# Disc length: 1745 seconds
#
# Revision: 0
# Processed by: cddbd v1.4PL0 Copyright (c) Steve Scherf et al.
# Submitted via: AltoMP3_Maker 3.0
#
DISCID=8d06cf0b
DTITLE=Sitze Family - From Within
DYEAR=1900
DGENRE=
TTITLE0=Who's Gettin' Ready
TTITLE1=Hope For The Hopeless
TTITLE2=You Don't Have To Move That Mountain
TTITLE3=Let Me Be A Witness
TTITLE4=The Garden
TTITLE5=WJKS
TTITLE6=Crying For Crumbs
TTITLE7=New Shoes
TTITLE8=He'll Be A Bridge
TTITLE9=Hey Moses
TTITLE10=Dying Saint
EXTD=
EXTT0=
EXTT1=
EXTT2=
EXTT3=
EXTT4=
EXTT5=
EXTT6=
EXTT7=
EXTT8=
EXTT9=
EXTT10=
PLAYORDER=
